<svg width="170" height="158" viewBox="0 0 170 158" fill="none" xmlns="http://www.w3.org/2000/svg">
<g id="schedule 1" clip-path="url(#clip0_1_1433)">
<g id="Group">
<g id="Group_2">
<path id="Vector" d="M81.9301 141.313H17.6944C11.4859 141.313 6.45311 136.28 6.45311 130.072V118.83H92.7281L81.9301 141.313Z" fill="#D3DCFB"/>
<path id="Vector_2" d="M152.606 51.3791V98.6069V130.071H17.6944C11.4859 130.071 6.45311 125.038 6.45311 118.829V51.3791L85.1508 23.2746L152.606 51.3791Z" fill="#EBF5FC"/>
<g id="Group_3">
<path id="Vector_3" d="M26.3052 73.8627H20.3332C18.8781 73.8627 17.6984 72.683 17.6984 71.228V65.2559C17.6984 63.8008 18.8781 62.6211 20.3332 62.6211H26.3052C27.7603 62.6211 28.94 63.8008 28.94 65.2559V71.228C28.94 72.683 27.7603 73.8627 26.3052 73.8627Z" fill="#3C58A0"/>
<path id="Vector_4" d="M48.7888 73.8628H42.8168C41.3617 73.8628 40.182 72.683 40.182 71.228V65.2559C40.182 63.8008 41.3617 62.6211 42.8168 62.6211H48.7888C50.2439 62.6211 51.4236 63.8008 51.4236 65.2559V71.228C51.4236 72.683 50.2439 73.8628 48.7888 73.8628Z" fill="#3C58A0"/>
<path id="Vector_5" d="M71.2721 73.8628H65.3C63.8449 73.8628 62.6652 72.683 62.6652 71.228V65.2559C62.6652 63.8008 63.8449 62.6211 65.3 62.6211H71.2721C72.7271 62.6211 73.9069 63.8008 73.9069 65.2559V71.228C73.9069 72.683 72.7275 73.8628 71.2721 73.8628Z" fill="#3C58A0"/>
<path id="Vector_6" d="M93.7557 73.8628H87.7836C86.3286 73.8628 85.1488 72.683 85.1488 71.228V65.2559C85.1488 63.8008 86.3286 62.6211 87.7836 62.6211H93.7557C95.2107 62.6211 96.3905 63.8008 96.3905 65.2559V71.228C96.3905 72.683 95.2107 73.8628 93.7557 73.8628Z" fill="#3C58A0"/>
<path id="Vector_7" d="M116.235 73.8628H110.263C108.808 73.8628 107.628 72.683 107.628 71.228V65.2559C107.628 63.8008 108.808 62.6211 110.263 62.6211H116.235C117.69 62.6211 118.87 63.8008 118.87 65.2559V71.228C118.87 72.683 117.691 73.8628 116.235 73.8628Z" fill="#3C58A0"/>
<path id="Vector_8" d="M138.719 73.8628H132.747C131.292 73.8628 130.112 72.683 130.112 71.228V65.2559C130.112 63.8008 131.292 62.6211 132.747 62.6211H138.719C140.174 62.6211 141.354 63.8008 141.354 65.2559V71.228C141.354 72.683 140.174 73.8628 138.719 73.8628Z" fill="#3C58A0"/>
<path id="Vector_9" d="M26.3052 96.346H20.3332C18.8781 96.346 17.6984 95.1663 17.6984 93.7112V87.7391C17.6984 86.2841 18.8781 85.1044 20.3332 85.1044H26.3052C27.7603 85.1044 28.94 86.2841 28.94 87.7391V93.7112C28.94 95.1666 27.7603 96.346 26.3052 96.346Z" fill="#3C58A0"/>
<path id="Vector_10" d="M48.7888 96.346H42.8168C41.3617 96.346 40.182 95.1663 40.182 93.7112V87.7391C40.182 86.2841 41.3617 85.1044 42.8168 85.1044H48.7888C50.2439 85.1044 51.4236 86.2841 51.4236 87.7391V93.7112C51.4236 95.1666 50.2439 96.346 48.7888 96.346Z" fill="#3C58A0"/>
<path id="Vector_11" d="M71.2721 96.346H65.3C63.8449 96.346 62.6652 95.1663 62.6652 93.7112V87.7391C62.6652 86.2841 63.8449 85.1044 65.3 85.1044H71.2721C72.7271 85.1044 73.9069 86.2841 73.9069 87.7391V93.7112C73.9069 95.1666 72.7275 96.346 71.2721 96.346Z" fill="#3C58A0"/>
<path id="Vector_12" d="M96.3905 96.346V87.9147C96.3905 86.3625 95.1324 85.1044 93.5801 85.1044H87.9592C86.407 85.1044 85.1488 86.3625 85.1488 87.9147V93.5357C85.1488 95.0879 86.4073 96.346 87.9592 96.346H96.3905Z" fill="#3C58A0"/>
<path id="Vector_13" d="M26.3052 118.83H20.3332C18.8781 118.83 17.6984 117.65 17.6984 116.195V110.223C17.6984 108.768 18.8781 107.588 20.3332 107.588H26.3052C27.7603 107.588 28.94 108.768 28.94 110.223V116.195C28.94 117.65 27.7603 118.83 26.3052 118.83Z" fill="#3C58A0"/>
<path id="Vector_14" d="M48.7888 118.83H42.8168C41.3617 118.83 40.182 117.65 40.182 116.195V110.223C40.182 108.768 41.3617 107.588 42.8168 107.588H48.7888C50.2439 107.588 51.4236 108.768 51.4236 110.223V116.195C51.4236 117.65 50.2439 118.83 48.7888 118.83Z" fill="#3C58A0"/>
<path id="Vector_15" d="M71.2721 118.83H65.3C63.8449 118.83 62.6652 117.65 62.6652 116.195V110.223C62.6652 108.768 63.8449 107.588 65.3 107.588H71.2721C72.7271 107.588 73.9069 108.768 73.9069 110.223V116.195C73.9069 117.65 72.7275 118.83 71.2721 118.83Z" fill="#3C58A0"/>
</g>
<path id="Vector_16" d="M138.639 62.6208H132.826C132.475 62.6208 132.14 62.6899 131.831 62.8115C132.837 63.2087 133.55 64.1875 133.55 65.3349V71.1479C133.55 72.2954 132.837 73.2742 131.831 73.6714C132.14 73.7932 132.475 73.8624 132.826 73.8624H138.639C140.139 73.8624 141.354 72.6471 141.354 71.1483V65.3353C141.354 63.8361 140.138 62.6208 138.639 62.6208Z" fill="#2A428C"/>
<path id="Vector_17" d="M116.156 62.6208H110.343C109.991 62.6208 109.656 62.6899 109.348 62.8115C110.354 63.2087 111.066 64.1875 111.066 65.3349V71.1479C111.066 72.2954 110.353 73.2742 109.348 73.6714C109.656 73.7932 109.991 73.8624 110.343 73.8624H116.156C117.655 73.8624 118.87 72.6471 118.87 71.1483V65.3353C118.87 63.8361 117.655 62.6208 116.156 62.6208Z" fill="#2A428C"/>
<path id="Vector_18" d="M93.6762 62.6208H87.8633C87.5115 62.6208 87.1766 62.6899 86.868 62.8115C87.8741 63.2087 88.5872 64.1875 88.5872 65.3349V71.1479C88.5872 72.2954 87.8741 73.2742 86.868 73.6714C87.1766 73.7932 87.5115 73.8624 87.8633 73.8624H93.6762C95.1754 73.8624 96.3907 72.6471 96.3907 71.1483V65.3353C96.3904 63.8361 95.1751 62.6208 93.6762 62.6208Z" fill="#2A428C"/>
<path id="Vector_19" d="M71.1927 62.6208H65.3797C65.0279 62.6208 64.693 62.6899 64.3844 62.8115C65.3906 63.2087 66.1036 64.1875 66.1036 65.3349V71.1479C66.1036 72.2954 65.3906 73.2742 64.3844 73.6714C64.693 73.7932 65.0279 73.8624 65.3797 73.8624H71.1927C72.6919 73.8624 73.9072 72.6471 73.9072 71.1483V65.3353C73.9068 63.8361 72.6919 62.6208 71.1927 62.6208Z" fill="#2A428C"/>
<path id="Vector_20" d="M48.7091 62.6208H42.8961C42.5444 62.6208 42.2094 62.6899 41.9008 62.8115C42.907 63.2087 43.6197 64.1875 43.6197 65.3349V71.1479C43.6197 72.2954 42.9066 73.2742 41.9008 73.6714C42.2094 73.7932 42.5444 73.8624 42.8961 73.8624H48.7091C50.2083 73.8624 51.4236 72.6471 51.4236 71.1483V65.3353C51.4236 63.8361 50.2083 62.6208 48.7091 62.6208Z" fill="#2A428C"/>
<path id="Vector_21" d="M26.2258 62.6208H20.4128C20.0611 62.6208 19.7261 62.6899 19.4175 62.8115C20.4237 63.2087 21.1367 64.1875 21.1367 65.3349V71.1479C21.1367 72.2954 20.4237 73.2742 19.4175 73.6714C19.7261 73.7932 20.0611 73.8624 20.4128 73.8624H26.2258C27.725 73.8624 28.9403 72.6471 28.9403 71.1483V65.3353C28.94 63.8361 27.7247 62.6208 26.2258 62.6208Z" fill="#2A428C"/>
<path id="Vector_22" d="M26.2258 85.1044H20.4128C20.0611 85.1044 19.7261 85.1735 19.4175 85.2951C20.4237 85.6923 21.1367 86.6711 21.1367 87.8185V93.6318C21.1367 94.7793 20.4237 95.7581 19.4175 96.1553C19.7261 96.2772 20.0611 96.3463 20.4128 96.3463H26.2258C27.725 96.3463 28.9403 95.131 28.9403 93.6322V87.8189C28.94 86.3197 27.7247 85.1044 26.2258 85.1044Z" fill="#2A428C"/>
<path id="Vector_23" d="M26.2258 107.588H20.4128C20.0611 107.588 19.7261 107.657 19.4175 107.779C20.4237 108.176 21.1367 109.155 21.1367 110.302V116.115C21.1367 117.263 20.4237 118.242 19.4175 118.639C19.7261 118.761 20.0611 118.83 20.4128 118.83H26.2258C27.725 118.83 28.9403 117.615 28.9403 116.116V110.302C28.94 108.803 27.7247 107.588 26.2258 107.588Z" fill="#2A428C"/>
<path id="Vector_24" d="M48.7091 85.1044H42.8961C42.5444 85.1044 42.2094 85.1735 41.9008 85.2951C42.907 85.6923 43.6197 86.6711 43.6197 87.8185V93.6318C43.6197 94.7793 42.9066 95.7581 41.9008 96.1553C42.2094 96.2772 42.5444 96.3463 42.8961 96.3463H48.7091C50.2083 96.3463 51.4236 95.131 51.4236 93.6322V87.8189C51.4236 86.3197 50.2083 85.1044 48.7091 85.1044Z" fill="#2A428C"/>
<path id="Vector_25" d="M48.7091 107.588H42.8961C42.5444 107.588 42.2094 107.657 41.9008 107.779C42.907 108.176 43.6197 109.155 43.6197 110.302V116.115C43.6197 117.263 42.9066 118.242 41.9008 118.639C42.2094 118.761 42.5444 118.83 42.8961 118.83H48.7091C50.2083 118.83 51.4236 117.615 51.4236 116.116V110.302C51.4236 108.803 50.2083 107.588 48.7091 107.588Z" fill="#2A428C"/>
<path id="Vector_26" d="M71.1927 85.1044H65.3797C65.0279 85.1044 64.693 85.1735 64.3844 85.2951C65.3906 85.6923 66.1036 86.6711 66.1036 87.8185V93.6318C66.1036 94.7793 65.3906 95.7581 64.3844 96.1553C64.693 96.2772 65.0279 96.3463 65.3797 96.3463H71.1927C72.6919 96.3463 73.9072 95.131 73.9072 93.6322V87.8189C73.9068 86.3197 72.6919 85.1044 71.1927 85.1044Z" fill="#2A428C"/>
<path id="Vector_27" d="M96.3904 96.346V87.8185C96.3904 86.3193 95.1751 85.1044 93.6759 85.1044H87.8629C87.5112 85.1044 87.1762 85.1735 86.8676 85.2951C87.8738 85.6923 88.5868 86.6711 88.5868 87.8185V93.6318C88.5868 94.7793 87.8738 95.7581 86.8676 96.1553C87.1762 96.2772 87.5112 96.3463 87.8629 96.3463H96.3904V96.346Z" fill="#2A428C"/>
<path id="Vector_28" d="M71.1927 107.588H65.3797C65.0279 107.588 64.693 107.657 64.3844 107.779C65.3906 108.176 66.1036 109.155 66.1036 110.302V116.115C66.1036 117.263 65.3906 118.242 64.3844 118.639C64.693 118.761 65.0279 118.83 65.3797 118.83H71.1927C72.6919 118.83 73.9072 117.615 73.9072 116.116V110.302C73.9068 108.803 72.6919 107.588 71.1927 107.588Z" fill="#2A428C"/>
<path id="Vector_29" d="M144.797 48.1255V98.607V130.071H152.606V98.607V51.3792L144.797 48.1255Z" fill="#D3DCFB"/>
<path id="Vector_30" d="M152.606 51.3791V23.2746C152.606 17.066 147.573 12.0333 141.365 12.0333H17.6944C11.4859 12.0333 6.45311 17.066 6.45311 23.2746V51.3791H152.606Z" fill="#FF4155"/>
<g id="Group_4">
<g id="Group_5">
<g id="Group_6">
<path id="Vector_31" d="M41.8744 25.8195H34.5573C33.1517 25.8195 32.0128 24.6802 32.0128 23.2749C32.0128 21.8696 33.152 20.7304 34.5573 20.7304H41.8744C43.2801 20.7304 44.419 21.8696 44.419 23.2749C44.419 24.6802 43.2798 25.8195 41.8744 25.8195Z" fill="#E80054"/>
</g>
<g id="Group_7">
<path id="Vector_32" d="M59.8509 25.8195H52.5338C51.1281 25.8195 49.9892 24.6802 49.9892 23.2749C49.9892 21.8696 51.1285 20.7304 52.5338 20.7304H59.8509C61.2566 20.7304 62.3954 21.8696 62.3954 23.2749C62.3954 24.6802 61.2566 25.8195 59.8509 25.8195Z" fill="#E80054"/>
</g>
<g id="Group_8">
<path id="Vector_33" d="M106.518 25.8195H99.2007C97.7951 25.8195 96.6562 24.6802 96.6562 23.2749C96.6562 21.8696 97.7954 20.7304 99.2007 20.7304H106.518C107.924 20.7304 109.063 21.8696 109.063 23.2749C109.063 24.6802 107.924 25.8195 106.518 25.8195Z" fill="#E80054"/>
</g>
<g id="Group_9">
<path id="Vector_34" d="M124.495 25.8195H117.178C115.772 25.8195 114.633 24.6802 114.633 23.2749C114.633 21.8696 115.772 20.7304 117.178 20.7304H124.495C125.901 20.7304 127.04 21.8696 127.04 23.2749C127.04 24.6802 125.9 25.8195 124.495 25.8195Z" fill="#E80054"/>
</g>
</g>
</g>
<path id="Vector_35" d="M54.2303 21.8696C54.2303 25.75 51.0847 28.8956 47.2043 28.8956C43.3239 28.8956 40.1783 25.75 40.1783 21.8696V7.8173C40.178 3.93692 43.3236 0.791321 47.204 0.791321C51.0844 0.791321 54.23 3.93692 54.23 7.8173V21.8696H54.2303Z" fill="#EBF5FC"/>
<path id="Vector_36" d="M118.874 21.8696C118.874 25.75 115.728 28.8956 111.848 28.8956C107.968 28.8956 104.822 25.75 104.822 21.8696V7.8173C104.822 3.93692 107.967 0.791321 111.848 0.791321C115.728 0.791321 118.874 3.93692 118.874 7.8173V21.8696H118.874Z" fill="#EBF5FC"/>
<path id="Vector_37" d="M111.848 0.791321C110.405 0.791321 109.065 1.22738 107.95 1.97302C109.835 3.23311 111.078 5.37947 111.078 7.81763V21.8696C111.078 24.3074 109.835 26.4541 107.95 27.7142C109.065 28.4595 110.405 28.8959 111.848 28.8959C115.728 28.8959 118.874 25.7503 118.874 21.8699V7.8173C118.874 3.93692 115.728 0.791321 111.848 0.791321V0.791321Z" fill="#D3DCFB"/>
<path id="Vector_38" d="M47.2039 0.791321C45.7614 0.791321 44.4216 1.22738 43.3058 1.97302C45.1913 3.23311 46.4339 5.37947 46.4339 7.81763V21.8696C46.4339 24.3074 45.1913 26.4541 43.3058 27.7142C44.4213 28.4595 45.7614 28.8959 47.2039 28.8959C51.0843 28.8959 54.2299 25.7503 54.2299 21.8699V7.8173C54.2302 3.93692 51.0847 0.791321 47.2039 0.791321V0.791321Z" fill="#D3DCFB"/>
<path id="Vector_39" d="M141.365 12.033H133.559C139.767 12.033 144.8 17.0657 144.8 23.2743V51.3792H152.606V23.2746C152.606 17.0661 147.573 12.033 141.365 12.033Z" fill="#E80054"/>
<path id="Vector_40" d="M6.45279 37.5927H152.606V42.6821H6.45279V37.5927Z" fill="#E80054"/>
</g>
<path id="Vector_41" d="M121.686 169.417C144.969 169.417 163.843 150.543 163.843 127.261C163.843 103.978 144.969 85.1044 121.686 85.1044C98.4039 85.1044 79.5298 103.978 79.5298 127.261C79.5298 150.543 98.4039 169.417 121.686 169.417Z" fill="#4FABF7"/>
<path id="Vector_42" d="M121.686 158.176C138.76 158.176 152.601 144.335 152.601 127.261C152.601 110.187 138.76 96.346 121.686 96.346C104.612 96.346 90.7714 110.187 90.7714 127.261C90.7714 144.335 104.612 158.176 121.686 158.176Z" fill="#EBF5FC"/>
<g id="Group_10">
<g id="Group_11">
<path id="Vector_43" d="M121.686 124.184C120.281 124.184 119.142 123.045 119.142 121.64V107.588C119.142 106.182 120.281 105.043 121.686 105.043C123.092 105.043 124.231 106.182 124.231 107.588V121.64C124.231 123.045 123.092 124.184 121.686 124.184Z" fill="#3C58A0"/>
</g>
</g>
<g id="Group_12">
<g id="Group_13">
<path id="Vector_44" d="M135.739 129.805H127.307C125.901 129.805 124.762 128.666 124.762 127.261C124.762 125.856 125.902 124.716 127.307 124.716H135.739C137.144 124.716 138.283 125.856 138.283 127.261C138.283 128.666 137.144 129.805 135.739 129.805Z" fill="#3C58A0"/>
</g>
</g>
<path id="Vector_45" d="M121.686 85.1044C120.371 85.1044 119.07 85.1679 117.785 85.2858C139.237 87.255 156.039 105.294 156.039 127.261C156.039 149.227 139.237 167.267 117.784 169.236C119.069 169.354 120.37 169.417 121.686 169.417C144.968 169.417 163.843 150.543 163.843 127.261C163.843 103.979 144.969 85.1044 121.686 85.1044Z" fill="#1886EA"/>
<path id="Vector_46" d="M121.686 96.346C120.366 96.346 119.064 96.4293 117.787 96.59C133.02 98.5072 144.803 111.508 144.803 127.261C144.803 143.014 133.02 156.015 117.787 157.932C119.064 158.092 120.366 158.176 121.686 158.176C138.76 158.176 152.601 144.335 152.601 127.261C152.601 110.187 138.76 96.346 121.686 96.346Z" fill="#D3DCFB"/>
<path id="Vector_47" d="M121.686 132.882C124.791 132.882 127.307 130.365 127.307 127.261C127.307 124.156 124.791 121.64 121.686 121.64C118.582 121.64 116.065 124.156 116.065 127.261C116.065 130.365 118.582 132.882 121.686 132.882Z" fill="#FFDD40"/>
</g>
</g>
<defs>
<clipPath id="clip0_1_1433">
<rect width="168.626" height="168.626" fill="white" transform="translate(0.834778 0.791321)"/>
</clipPath>
</defs>
</svg>
