<svg width="57" height="59" viewBox="0 0 57 59" fill="none" xmlns="http://www.w3.org/2000/svg">
<g id="Group">
<path id="Vector" d="M52.9647 34.9356L53.0796 34.9931C55.7515 36.4871 56.7858 39.8485 55.378 42.5491C50.4939 51.8863 40.6683 58.2644 29.3774 58.1782C13.6334 58.0633 0.733603 45.2497 0.503763 29.5057C0.245193 13.2445 13.3461 0 29.5785 0C38.7434 0 46.9314 4.25204 52.2464 10.8887L41.8462 16.5197C38.5135 13.2732 33.888 11.3196 28.8315 11.5207C19.5517 11.8942 12.0819 19.5651 11.967 28.8736C11.8521 38.6993 19.7816 46.6862 29.5498 46.6862C36.33 46.6862 42.2197 42.8651 45.1501 37.234C46.6441 34.4185 50.1779 33.3842 52.9647 34.9356Z" fill="#5669FF"/>
<path id="Vector_2" d="M55.4642 15.83C56.7571 18.3583 55.8377 21.4611 53.3382 22.8401L46.9602 26.3739L31.1587 35.1366C28.6879 36.5156 25.5851 35.8261 23.9187 33.5277L23.8613 33.4415C21.8789 30.7122 22.7408 26.8336 25.7287 25.2247L41.875 16.4908L52.2752 10.8597C53.4819 12.4112 54.5449 14.0775 55.4642 15.83Z" fill="#00F8FF"/>
</g>
</svg>
