<svg width="19" height="19" viewBox="0 0 19 19" fill="none" xmlns="http://www.w3.org/2000/svg">
<g id="2476154" clip-path="url(#clip0_1_2655)">
<g id="Group">
<path id="Vector" d="M8.80465 2.79139C8.68893 2.0294 8.45493 1.25807 8.11408 0.504395C6.34406 0.753286 4.74196 1.52459 3.46851 2.65766L7.86793 7.05711C8.72748 5.96398 9.05971 4.4709 8.80465 2.79139Z" fill="white"/>
<path id="Vector_2" d="M7.87252 8.53C6.82181 9.39755 5.46998 9.85079 3.95117 9.85083C3.54877 9.85083 3.13481 9.81903 2.71149 9.75479C1.97195 9.64246 1.22649 9.43177 0.494912 9.13117C0.494116 9.18157 0.493042 9.23193 0.493042 9.28253C0.493042 11.5441 1.3402 13.6074 2.73383 15.1737L8.62504 9.28253L7.87252 8.53Z" fill="white"/>
<path id="Vector_3" d="M7.13329 7.79029L2.73383 3.39087C1.60076 4.66432 0.829458 6.26639 0.580566 8.03641C1.33427 8.37726 2.10564 8.61133 2.86752 8.72705C4.54715 8.98214 6.04019 8.64984 7.13329 7.79029Z" fill="white"/>
<path id="Vector_4" d="M15.852 9.83816C14.1725 9.58303 12.6794 9.91532 11.5863 10.7749L15.9857 15.1743C17.1188 13.9008 17.8901 12.2988 18.139 10.5288C17.3854 10.1879 16.6141 9.95391 15.852 9.83816Z" fill="white"/>
<path id="Vector_5" d="M10.1121 10.7707L9.35972 10.0183L3.46851 15.9095C5.03483 17.3032 7.09818 18.1503 9.35972 18.1503C9.41032 18.1503 9.46068 18.1492 9.51108 18.1484C9.21051 17.4168 8.99979 16.6714 8.88746 15.9318C8.58059 13.9108 9.01468 12.0997 10.1121 10.7707Z" fill="white"/>
<path id="Vector_6" d="M8.6073 7.79578L9.35966 8.54814L15.2509 2.65693C13.6845 1.26326 11.6212 0.416138 9.35966 0.416138C9.30905 0.416138 9.25869 0.417211 9.2083 0.418043C9.50887 1.14958 9.71959 1.89498 9.83191 2.63462C10.1388 4.65565 9.7047 6.46674 8.6073 7.79578Z" fill="white"/>
<path id="Vector_7" d="M9.91451 15.7752C10.0302 16.537 10.2643 17.3084 10.6051 18.0621C12.3751 17.8133 13.9772 17.042 15.2507 15.9089L10.8512 11.5094C9.99168 12.6026 9.65946 14.0956 9.91451 15.7752Z" fill="white"/>
<path id="Vector_8" d="M10.8471 10.0345C12.1761 8.93704 13.9872 8.50299 16.0082 8.80986C16.7479 8.92218 17.4933 9.13294 18.2248 9.43348C18.2257 9.38308 18.2267 9.33272 18.2267 9.28208C18.2267 7.02055 17.3796 4.9572 15.9859 3.39087L10.0947 9.28212L10.8471 10.0345Z" fill="white"/>
</g>
</g>
<defs>
<clipPath id="clip0_1_2655">
<rect width="17.7335" height="17.7335" fill="white" transform="translate(0.493164 0.417694)"/>
</clipPath>
</defs>
</svg>
