<svg width="19" height="19" viewBox="0 0 19 19" fill="none" xmlns="http://www.w3.org/2000/svg">
<g id="1381174" clip-path="url(#clip0_1_2648)">
<path id="Vector" d="M6.47517 3.74546V12.599C5.91153 12.086 5.16294 11.7731 4.34277 11.7731C2.5938 11.7731 1.1709 13.196 1.1709 14.945C1.1709 16.6939 2.5938 18.1169 4.34277 18.1169C6.08958 18.1169 7.51086 16.6975 7.51451 14.9516H7.51465V8.62518L16.6236 5.88787V10.4651C16.0599 9.95229 15.3113 9.63922 14.4912 9.63922C12.7422 9.63922 11.3193 11.0621 11.3193 12.8111C11.3193 14.5601 12.7422 15.983 14.4912 15.983C16.2342 15.983 17.6532 14.5697 17.6628 12.8288H17.6631V0.383362L6.47517 3.74546Z" fill="white"/>
</g>
<defs>
<clipPath id="clip0_1_2648">
<rect width="17.7335" height="17.7335" fill="white" transform="translate(0.547363 0.417664)"/>
</clipPath>
</defs>
</svg>
