<svg width="18" height="19" viewBox="0 0 18 19" fill="none" xmlns="http://www.w3.org/2000/svg">
<g id="685352" clip-path="url(#clip0_1_2670)">
<g id="Group">
<g id="Group_2">
<path id="Vector" d="M17.4673 15.8942L10.535 8.9619L2.43589 0.862762H1.80293L1.67369 1.19117C1.33258 2.05799 1.18683 2.94456 1.25226 3.75492C1.32685 4.67864 1.67777 5.47837 2.26714 6.06775L8.58976 12.3904L9.42371 11.5564L15.269 18.0925C15.8504 18.674 16.8513 18.7085 17.4673 18.0925C18.0734 17.4864 18.0734 16.5003 17.4673 15.8942Z" fill="white"/>
</g>
</g>
<g id="Group_3">
<g id="Group_4">
<path id="Vector_2" d="M5.65957 10.9269L0.707715 15.8788C0.10166 16.4848 0.10166 17.471 0.707715 18.0771C1.28345 18.6528 2.27944 18.7036 2.90601 18.0771L7.85789 13.1252L5.65957 10.9269Z" fill="white"/>
</g>
</g>
<g id="Group_5">
<g id="Group_6">
<path id="Vector_3" d="M17.176 3.80607L14.3671 6.61501L13.6343 5.88224L16.4432 3.07326L15.7105 2.34049L12.9015 5.14943L12.1687 4.41665L14.9777 1.60771L14.245 0.874969L10.5811 4.53885C10.1329 4.98707 9.86524 5.58222 9.8274 6.21472C9.81783 6.37497 9.78151 6.53259 9.72125 6.68252L12.1013 9.06257C12.2512 9.00225 12.4089 8.96596 12.5691 8.9564C13.2016 8.91866 13.7968 8.65095 14.245 8.20273L17.9089 4.53888L17.176 3.80607Z" fill="white"/>
</g>
</g>
</g>
<defs>
<clipPath id="clip0_1_2670">
<rect width="17.6789" height="17.6789" fill="white" transform="translate(0.247742 0.863159)"/>
</clipPath>
</defs>
</svg>
