<svg width="19" height="21" viewBox="0 0 19 21" fill="none" xmlns="http://www.w3.org/2000/svg">
<path fill-rule="evenodd" clip-rule="evenodd" d="M13.7271 1.65326L13.728 2.37165C16.3679 2.57855 18.1117 4.3774 18.1146 7.13602L18.125 15.2107C18.1288 18.2184 16.2392 20.069 13.2105 20.0737L5.81222 20.0833C2.80239 20.0872 0.889199 18.1925 0.885414 15.1762L0.875006 7.19636C0.871222 4.41954 2.55355 2.62548 5.19341 2.38315L5.19247 1.66476C5.19152 1.2433 5.50376 0.926252 5.92009 0.926252C6.33641 0.925295 6.64865 1.24139 6.6496 1.66284L6.65055 2.33334L12.2709 2.32568L12.27 1.65518C12.269 1.23372 12.5813 0.917632 12.9976 0.916674C13.4044 0.915716 13.7261 1.23181 13.7271 1.65326ZM2.3331 7.49228L16.6584 7.47312V7.13788C16.6177 5.07849 15.5845 3.99803 13.7299 3.83711L13.7309 4.57466C13.7309 4.98654 13.4101 5.31316 13.0033 5.31316C12.587 5.31412 12.2738 4.98845 12.2738 4.57657L12.2728 3.80071L6.65245 3.80838L6.6534 4.58328C6.6534 4.99611 6.3421 5.32178 5.92578 5.32178C5.50946 5.32274 5.19627 4.99803 5.19627 4.5852L5.19532 3.84765C3.35025 4.03251 2.32931 5.1168 2.33215 7.19439L2.3331 7.49228ZM12.605 11.8457V11.8562C12.6144 12.2968 12.974 12.6311 13.4102 12.6216C13.836 12.611 14.1757 12.2461 14.1662 11.8055C14.1463 11.384 13.8048 11.0401 13.3799 11.0411C12.9447 11.0507 12.604 11.4051 12.605 11.8457ZM13.3864 16.1465C12.9512 16.1369 12.6002 15.7739 12.5992 15.3333C12.5897 14.8926 12.9389 14.5277 13.3741 14.5172H13.3836C13.8283 14.5172 14.1888 14.8802 14.1888 15.3304C14.1897 15.7806 13.8302 16.1455 13.3864 16.1465ZM8.70661 11.8611C8.72553 12.3017 9.08603 12.6456 9.52128 12.6265C9.94706 12.6063 10.2867 12.2424 10.2678 11.8017C10.2574 11.3707 9.90732 11.0355 9.48154 11.0364C9.04629 11.0556 8.70566 11.4205 8.70661 11.8611ZM9.52514 16.1035C9.08989 16.1226 8.73034 15.7787 8.71047 15.3381C8.71047 14.8975 9.05015 14.5335 9.4854 14.5134C9.91118 14.5125 10.2622 14.8477 10.2717 15.2778C10.2916 15.7194 9.95092 16.0833 9.52514 16.1035ZM4.80835 11.8946C4.82727 12.3352 5.18777 12.68 5.62302 12.6599C6.0488 12.6408 6.38849 12.2758 6.36862 11.8352C6.35915 11.4042 6.00906 11.0689 5.58233 11.0699C5.14709 11.089 4.8074 11.454 4.80835 11.8946ZM5.62676 16.1081C5.19152 16.1282 4.83196 15.7834 4.81209 15.3428C4.81115 14.9022 5.15178 14.5372 5.58702 14.5181C6.01281 14.5171 6.36384 14.8524 6.37331 15.2834C6.39318 15.724 6.05349 16.089 5.62676 16.1081Z" fill="#2C3550"/>
</svg>
